<svg xmlns="http://www.w3.org/2000/svg" xmlns:xlink="http://www.w3.org/1999/xlink" width="42" height="42" viewBox="0 0 42 42">
    <defs>
        <circle id="prefix__a" cx="20" cy="20" r="20"/>
        <circle id="prefix__b" cx="20" cy="20" r="17.895"/>
    </defs>
    <g fill="none" fill-rule="evenodd" transform="translate(1 1)">
        <circle cx="20" cy="20" r="20.5" stroke="#FAE0BF"/>
        <mask id="prefix__c" fill="#fff">
            <use xlink:href="#prefix__b"/>
        </mask>
        <use fill="#FFF" xlink:href="#prefix__b"/>
        <g mask="url(#prefix__c)">
            <g fill-rule="nonzero">
                <path fill="#E3AA75" d="M22.842 24.13l-5.506-1.62c-.667-.196-1.125-.808-1.125-1.504v-2.484H8.897v2.484c0 .696-.458 1.308-1.125 1.504l-5.506 1.62c-1.334.392-2.25 1.616-2.25 3.006v3.924c0 .866.701 1.567 1.567 1.567h21.942c.865 0 1.567-.701 1.567-1.567v-3.924c0-1.39-.916-2.614-2.25-3.007z" transform="translate(8.029 7.092)"/>
                <path fill="#E6646E" d="M22.842 24.13l-5.506-1.62c-.093-.027-.181-.065-.265-.107l-4.517.82-4.517-.82c-.084.042-.172.08-.265.107l-5.506 1.62c-1.334.392-2.25 1.616-2.25 3.006v3.924c0 .866.701 1.567 1.567 1.567h21.942c.865 0 1.567-.701 1.567-1.567v-3.924c0-1.39-.916-2.614-2.25-3.007z" transform="translate(8.029 7.092)"/>
                <path fill="#DC4655" d="M6.375 23.707l2.589 2.219c.378.324.86.503 1.359.503.639 0 1.234-.286 1.632-.784l.599-.749.598.749c.4.498.994.784 1.633.784.498 0 .98-.179 1.36-.503l2.588-2.219c.21-.18.354-.41.435-.658l-1.832-.54c-.093-.027-.181-.064-.265-.106l-4.517.82-4.517-.82c-.084.042-.172.08-.265.107l-1.832.539c.08.248.225.478.435.658z" transform="translate(8.029 7.092)"/>
                <path fill="#D29B6E" d="M8.897 19.688c1.097.586 2.342.924 3.657.924s2.56-.338 3.657-.924v-1.166H8.897v1.166z" transform="translate(8.029 7.092)"/>
                <path fill="#F5B97D" d="M19.606 10.686h-.26V4.939H5.761v5.747h-.26c-.722 0-1.307.584-1.307 1.306 0 .721.585 1.306 1.306 1.306h.288c.267 3.506 3.19 6.269 6.765 6.269 3.574 0 6.497-2.763 6.765-6.27h.287c.722 0 1.307-.584 1.307-1.305s-.585-1.306-1.307-1.306z" transform="translate(8.029 7.092)"/>
                <path fill="#E3AA75" d="M17.256 5.984V4.939H5.762v5.747h-.186c-.683 0-1.306.491-1.374 1.171-.078.782.534 1.44 1.3 1.44h.287c.267 3.507 3.19 6.27 6.765 6.27.357 0 .706-.035 1.048-.088-3.255-.503-5.75-3.308-5.75-6.704V9.118c0-1.154.936-2.09 2.09-2.09h6.269c.577 0 1.045-.467 1.045-1.044z" transform="translate(8.029 7.092)"/>
                <g fill="#E6646E">
                    <path d="M5.672 2.45L1.447.101C1.187-.042.859.06.726.325L.07 1.635c-.086.172-.044.38.102.504L2.76 4.358c.449.385 1.127.32 1.496-.14l1.415-1.769zM5.672 2.45L9.896.101c.26-.144.588-.043.721.223l.655 1.31c.086.172.044.38-.102.504L8.582 4.358c-.449.385-1.127.32-1.496-.14L5.672 2.448z" transform="translate(8.029 7.092) translate(6.882 20.775)"/>
                </g>
                <g fill="#5A4650">
                    <path d="M.561 1.593c-.288 0-.522-.234-.522-.523V.548C.04.259.273.025.561.025c.29 0 .523.234.523.523v.522c0 .289-.234.523-.523.523zM6.83 1.593c-.288 0-.522-.234-.522-.523V.548c0-.289.234-.523.523-.523.288 0 .522.234.522.523v.522c0 .289-.234.523-.522.523z" transform="translate(8.029 7.092) translate(8.858 10.706)"/>
                </g>
                <g fill="#6E5A64">
                    <path d="M1.594 1.217H.549C.26 1.217.026.946.026.612.026.278.26.007.55.007h1.045c.288 0 .522.27.522.605 0 .334-.233.605-.522.605zM7.863 1.217H6.818c-.289 0-.522-.271-.522-.605 0-.334.233-.605.522-.605h1.045c.289 0 .522.27.522.605 0 .334-.233.605-.522.605z" transform="translate(8.029 7.092) translate(8.348 9.113)"/>
                </g>
                <path fill="#FFF" d="M10.488 14.125c-.164 0-.286.15-.259.313.17 1.005 1.146 1.777 2.325 1.777 1.179 0 2.155-.772 2.325-1.777.027-.163-.095-.313-.26-.313h-4.13z" transform="translate(8.029 7.092)"/>
                <g fill="#FFC350" transform="translate(8.029 7.092) translate(11.98 26.828)">
                    <circle cx=".627" cy=".575" r="1"/>
                    <circle cx=".627" cy="3.709" r="1"/>
                </g>
                <path fill="#5A4650" d="M18.407 3.894H6.701c-1.596 0-2.818 1.418-2.584 2.995l.6 4.055 1.174-.145c.523-.065.916-.51.916-1.037V7.03c0-.577.468-1.045 1.045-1.045h9.404c.577 0 1.044.468 1.044 1.045v2.733c0 .528.394.972.917 1.037l1.173.145.601-4.055c.234-1.577-.989-2.995-2.584-2.995z" transform="translate(8.029 7.092)"/>
                <path fill="#64505A" d="M19.59.367c-.1-.31-.461-.462-.747-.302-.544.303-1.556.695-3.155.695h-5.224c-2.02 0-3.657 1.637-3.657 3.657 0 .865.702 1.567 1.567 1.567h8.36c1.962 0 3.925-2.305 2.857-5.617z" transform="translate(8.029 7.092)"/>
                <g fill="#DC4655">
                    <path d="M1.595.014v4.702H.028V1.58C.028.716.729.014 1.595.014zM17.268.014v4.702h1.567V1.58c0-.865-.702-1.567-1.567-1.567z" transform="translate(8.029 7.092) translate(3.123 27.912)"/>
                </g>
                <g fill="#FFE17D">
                    <path d="M.002 9.877L2.092 9.877 2.092.044.002.658zM15.674 9.877L13.585 9.877 13.585.044 15.674.658z" transform="translate(8.029 7.092) translate(4.716 22.75)"/>
                </g>
                <g fill="#FFD164">
                    <path d="M.002 4.716h1.045V1.059C1.047.482.579.014.002.014v4.702zM15.674 4.716H14.63V1.059c0-.577.467-1.045 1.044-1.045v4.702z" transform="translate(8.029 7.092) translate(4.716 27.912)"/>
                </g>
                <path fill="#6E5A64" d="M9.917 2.581c.008.74.664 1.313 1.405 1.313h7.085c.376 0 .73.081 1.05.222.476-.966.617-2.253.133-3.75-.1-.31-.461-.46-.745-.302-.544.304-1.556.696-3.157.696h-5.224c-.033.02-.07.04-.102.06-.283.519-.445 1.112-.445 1.744v.017z" transform="translate(8.029 7.092)"/>
            </g>
        </g>
    </g>
</svg>
